<svg width="45" height="45" viewBox="0 0 45 45" fill="none" xmlns="http://www.w3.org/2000/svg">
  <!-- Owl Body - Dark Blue -->
  <ellipse cx="22.5" cy="28" rx="14" ry="12" fill="#2C5F7C" stroke="#1A3A47" stroke-width="1"/>
  
  <!-- Owl Head - Dark Blue -->
  <circle cx="22.5" cy="17" r="12" fill="#2C5F7C" stroke="#1A3A47" stroke-width="1"/>
  
  <!-- Ear Tufts - Dark Blue -->
  <path d="M13 9 L10 4 L16 7 Z" fill="#2C5F7C"/>
  <path d="M32 9 L35 4 L29 7 Z" fill="#2C5F7C"/>
  
  <!-- Wing/Side Details - Teal -->
  <ellipse cx="12" cy="25" rx="4" ry="8" fill="#40B5A8" opacity="0.8"/>
  <ellipse cx="33" cy="25" rx="4" ry="8" fill="#40B5A8" opacity="0.8"/>
  
  <!-- Chest/Belly - Light Teal -->
  <ellipse cx="22.5" cy="22" rx="6" ry="3" fill="#5FCCC9" opacity="0.7"/>
  <ellipse cx="22.5" cy="27" rx="7" ry="3" fill="#5FCCC9" opacity="0.5"/>
  
  <!-- Eyes - White with dark pupils -->
  <circle cx="18" cy="15" r="3.5" fill="#FFFFFF" stroke="#1A3A47" stroke-width="0.5"/>
  <circle cx="27" cy="15" r="3.5" fill="#FFFFFF" stroke="#1A3A47" stroke-width="0.5"/>
  
  <!-- Eye pupils -->
  <circle cx="18" cy="15" r="2" fill="#1A3A47"/>
  <circle cx="27" cy="15" r="2" fill="#1A3A47"/>
  
  <!-- Eye highlights -->
  <circle cx="18.7" cy="14.3" r="0.7" fill="#FFFFFF"/>
  <circle cx="27.7" cy="14.3" r="0.7" fill="#FFFFFF"/>
  
  <!-- Beak - Teal -->
  <path d="M22.5 18 L20 21 L25 21 Z" fill="#40B5A8" stroke="#2C5F7C" stroke-width="0.5"/>
  
  <!-- Additional wing details -->
  <path d="M12 20 Q8 22 12 28 Q14 24 12 20" fill="#2C5F7C" opacity="0.6"/>
  <path d="M33 20 Q37 22 33 28 Q31 24 33 20" fill="#2C5F7C" opacity="0.6"/>
</svg>
